<svg height="1280" width="1280" xmlns="http://www.w3.org/2000/svg"><path d="m0 0c.91-0 1.83-.01 2.77-.01.99 0 1.98 0 3 .01 1.52 0 1.52 0 3.07-.01 2.15 0 4.29 0 6.44.01 3.29 0 6.58 0 9.87-.01 2.08 0 4.16 0 6.24.01.99-.01 1.98-.01 3-.01.92 0 1.83.01 2.77.01h2.45c1.97.13 1.97.13 3.97 1.13 1.6.13 3.21.23 4.81.31 6.75.55 12.81 2.56 19.19 4.69 1.73.49 1.73.49 3.5 1 1.73.49 1.73.49 3.5 1 1.52.43 1.52.43 3.06.87 6.22 1.82 11.43 3.78 16.94 7.13 1.35.53 2.7 1.03 4.06 1.5 3.75 1.34 6.65 3.24 9.94 5.5 1.64.86 3.29 1.72 4.94 2.56 5.03 2.71 9.64 5.83 14.25 9.19 1.01.73 1.01.73 2.04 1.47 1.63 1.2 3.21 2.49 4.77 3.78v2c.85.37.85.37 1.71.74 8.56 4.69 17.81 14.13 23.29 22.26v2h2c3.49 3.82 6.45 8.03 8 13h2c1.65 2.45 3.16 4.88 4.63 7.44.66 1.15.66 1.15 1.35 2.33 23.06 40.45 32 88.49 21.02 134.23-.31 1.6-.62 3.21-.94 4.81-.91 4.08-2.44 7.8-4.05 11.65-1 2.53-1.77 5.05-2.51 7.66-1.09 3.77-2.44 7.11-4.28 10.56-.96 1.83-1.88 3.68-2.78 5.54-3.28 6.73-6.73 13.12-10.86 19.38-1.11 1.69-2.16 3.44-3.16 5.21-.47.72-.93 1.44-1.42 2.19-.66 0-1.32 0-2 0-.25.71-.49 1.43-.75 2.17-1.39 3.14-3.09 5.47-5.25 8.14-.7.88-1.4 1.77-2.12 2.68-.62.66-1.24 1.33-1.88 2.01-.66 0-1.32 0-2 0-.27.64-.53 1.28-.81 1.94-1.19 2.06-1.19 2.06-4.19 3.06-.33.66-.66 1.32-1 2-.33.66-.66 1.32-1 2-.99.33-1.98.66-3 1v2c-5.47 5-5.47 5-8 5v2c-1.68 1.51-1.68 1.51-3.87 3.12-.72.54-1.44 1.08-2.18 1.64-1.95 1.24-1.95 1.24-3.95 1.24v2c-4.38 3-4.38 3-7 3v2c-.99 0-1.98 0-3 0-.25.56-.49 1.11-.75 1.69-1.25 2.31-1.25 2.31-3.19 4.56-5.58 7.44-5.49 14.86-5.42 23.82v3.77c0 3.28.02 6.56.04 9.84.01 2.01.01 4.02.01 6.03-.01 3.87 0 7.74.01 11.61v3.63c.01 1.11.02 2.23.03 3.38 0 .97.01 1.95.01 2.96.28 2.9 1.14 5.04 2.26 7.71v3h2c.7.76 1.4 1.53 2.13 2.31 7 6.55 15.13 6.11 24.19 6.07 2.26-.01 4.52 0 6.77.02 6.41.04 12.83.04 19.24.04 3.94 0 7.87.01 11.81.04 2.2.02 4.39 0 6.58-.01 19.69.05 37.33 6.9 54.28 16.53v2c.79.31 1.57.62 2.38.94 2.62 1.06 2.62 1.06 4.62 2.06v2c.84.34.84.34 1.69.69 7.49 4.25 14.55 13.26 19.31 20.31v2h2c3 4.38 3 4.38 3 7h2c1.86 2.42 3.6 4.86 5.31 7.37 1.09 1.57 2.17 3.13 3.26 4.69.56.82 1.13 1.63 1.71 2.47 2.78 3.98 5.62 7.91 8.47 11.84.54.76 1.09 1.51 1.65 2.28 2.38 3.3 4.77 6.59 7.2 9.86.73.98 1.46 1.97 2.21 2.99.63.83 1.25 1.67 1.9 2.53 1.29 1.97 1.29 1.97 1.29 3.97h2c3 4.38 3 4.38 3 7h2c1.86 2.42 3.6 4.86 5.31 7.37 1.09 1.57 2.17 3.13 3.26 4.69.56.82 1.13 1.63 1.71 2.47 2.78 3.98 5.62 7.91 8.47 11.84.82 1.13.82 1.13 1.65 2.28 2.38 3.3 4.77 6.59 7.2 9.86.73.98 1.46 1.97 2.21 2.99.63.83 1.25 1.67 1.9 2.53 1.29 1.97 1.29 1.97 1.29 3.97h2c3 4.38 3 4.38 3 7h2c1.86 2.42 3.6 4.86 5.31 7.37 1.09 1.57 2.17 3.13 3.26 4.69.56.82 1.13 1.63 1.71 2.47 2.78 3.98 5.62 7.91 8.47 11.84.82 1.13.82 1.13 1.65 2.28 2.38 3.3 4.77 6.59 7.2 9.86.73.98 1.46 1.97 2.21 2.99.63.83 1.25 1.67 1.9 2.53 1.29 1.97 1.29 1.97 1.29 3.97h2c3 4.38 3 4.38 3 7h2c1.86 2.42 3.6 4.86 5.31 7.37 1.08 1.56 2.15 3.11 3.23 4.66.56.81 1.12 1.62 1.7 2.46 1.79 2.55 3.61 5.06 5.45 7.58.59.81 1.19 1.63 1.8 2.47 1.16 1.58 2.33 3.16 3.5 4.74.79 1.08.79 1.08 1.59 2.18.7.96.7.96 1.42 1.93 1 1.61 1 1.61 1 3.61h2c1.59 1.98 1.59 1.98 3.38 4.62.61.91 1.23 1.82 1.87 2.76.58.87 1.16 1.73 1.75 2.62.45.64.89 1.27 1.35 1.93 2.65 3.82 2.65 3.82 2.65 6.07h2c1.86 2.42 3.6 4.86 5.31 7.37 1.08 1.56 2.15 3.11 3.23 4.66.84 1.21.84 1.21 1.7 2.46 1.79 2.55 3.61 5.06 5.45 7.58.59.81 1.19 1.63 1.8 2.47 1.16 1.58 2.33 3.16 3.5 4.74.79 1.08.79 1.08 1.59 2.18.7.96.7.96 1.42 1.93 1 1.61 1 1.61 1 3.61h2c1.59 1.98 1.59 1.98 3.38 4.62.61.91 1.23 1.82 1.87 2.76.58.87 1.16 1.73 1.75 2.62.45.64.89 1.27 1.35 1.93 2.65 3.82 2.65 3.82 2.65 6.07h2c1.86 2.42 3.6 4.86 5.31 7.37 1.08 1.56 2.15 3.11 3.23 4.66.84 1.21.84 1.21 1.7 2.46 1.79 2.55 3.61 5.06 5.45 7.58.59.81 1.19 1.63 1.8 2.47 1.16 1.58 2.33 3.16 3.5 4.74.79 1.08.79 1.08 1.59 2.18.7.96.7.96 1.42 1.93 1 1.61 1 1.61 1 3.61h2c1.51 1.68 1.51 1.68 3.13 3.87.54.72 1.07 1.44 1.63 2.18 1.24 1.95 1.24 1.95 1.24 3.95h2c1.36 1.31 2.69 2.65 4 4 9.16 7.89 22.38 8.72 33.86 8.6 1.37.01 2.73.01 4.1.03 3.54.02 7.09.01 10.64 0 5.68-.02 11.37-.01 17.05.03 1.97 0 3.93-.01 5.89-.02 16.58.05 30.98 5.89 44.46 15.36.85.58 1.69 1.17 2.56 1.77 14.61 10.82 25.09 28.74 29.44 46.23.2 2.79.31 5.49.3 8.28.01 1.15.01 1.15.02 2.33v4.86c-.01 2.46.02 4.91.04 7.37.01 1.58.01 3.17.01 4.75 0 .72.01 1.45.02 2.19-.04 5.34-1.32 9.3-3.39 14.22-.29.91-.58 1.82-.88 2.77-3.86 11.96-11.5 21.28-20.12 30.23-.7.75-1.41 1.51-2.14 2.28-1.86 1.72-1.86 1.72-3.86 1.72v2c-4.38 3-4.38 3-7 3v2c-5.41 2.93-10.93 5.49-16.69 7.69-1.03.39-2.07.79-3.13 1.2-13.08 3.92-27.06 3.38-40.55 3.3-2.02 0-4.04 0-6.06 0-5.26-.01-10.52-.03-15.78-.05-5.39-.02-10.78-.03-16.17-.04-10.54-.02-21.08-.06-31.62-.1v2c.59.12 1.19.24 1.8.37 3.52 1.01 6.23 3.3 9.14 5.44.61.44 1.22.88 1.84 1.33 1.75 1.27 3.49 2.56 5.22 3.86.97.73 1.94 1.45 2.94 2.2.68.59 1.36 1.19 2.06 1.8v2c.56.23 1.12.47 1.69.71 10.16 5.67 17.49 17.41 24.12 26.65.97 1.34 2 2.64 3.04 3.92 1.15 1.72 1.15 1.72 1.15 4.72h2c3.17 5.37 5.82 10.73 8.04 16.56.88 2.22 1.86 4.35 2.9 6.5 3.16 7 5.05 14.54 7.06 21.94.29 1.02.29 1.02.58 2.07 1.12 4.25 1.74 8.29 1.98 12.68.19 4.1.19 4.1.95 8.12 4.19 18.03.07 40.77-5.51 58.13-.67 2.33-1.34 4.66-2 7-3.61 12.59-9.19 24.66-16.87 35.3-1.31 1.82-1.31 1.82-2.13 4.7-.66 0-1.32 0-2 0-.46 1.18-.46 1.18-.94 2.37-1.06 2.63-1.06 2.63-2.06 4.63-.66 0-1.32 0-2 0-.24.54-.47 1.09-.72 1.65-1.6 2.94-3.58 5.34-5.72 7.91-.78.95-1.56 1.9-2.37 2.88-3.52 4.12-3.52 4.12-5.19 5.56-.66 0-1.32 0-2 0v2c-1.46 1.51-1.46 1.51-3.37 3.12-.94.81-.94.81-1.9 1.64-1.73 1.24-1.73 1.24-3.73 1.24v2c-2.38 1.82-4.76 3.52-7.25 5.19-.72.49-1.44.98-2.19 1.48-16.87 11.33-16.87 11.33-21.56 11.33v2c-.68.24-1.35.48-2.05.73-7.22 2.6-14.36 5.33-21.43 8.32-6.22 2.35-14.56 4.62-20.89 1.95-.54-.33-1.08-.66-1.63-1 0-.66 0-1.32 0-2-.73-.11-1.46-.22-2.21-.33-2.95-.71-4.81-1.72-7.35-3.36-5.62-3.5-11.48-6.42-17.44-9.31 0-.66 0-1.32 0-2-.73-.11-1.46-.22-2.21-.33-2.95-.71-4.81-1.72-7.35-3.36-5.62-3.5-11.48-6.42-17.44-9.31 0-.66 0-1.32 0-2-.72-.1-1.44-.21-2.18-.31-3.12-.77-5.23-1.97-7.94-3.69-2.69-1.7-4.86-2.99-7.88-4 0-.66 0-1.32 0-2-1.09-.16-1.09-.16-2.21-.33-2.95-.71-4.81-1.72-7.35-3.36-3.63-2.26-7.27-4.26-11.13-6.12-4.76-2.34-9.29-4.92-13.81-7.69-4.42-2.71-8.83-5.24-13.5-7.5-5.35-2.59-10.37-5.58-15.43-8.68-3.78-2.3-7.58-4.39-11.57-6.32-5.35-2.59-10.37-5.58-15.43-8.68-3.78-2.3-7.58-4.39-11.57-6.32-5.35-2.59-10.37-5.58-15.43-8.68-3.78-2.3-7.58-4.39-11.57-6.32-5.35-2.59-10.37-5.58-15.43-8.68-3.78-2.3-7.58-4.39-11.57-6.32-5.35-2.59-10.36-5.58-15.42-8.68-4.81-2.92-9.74-5.47-14.81-7.93-3.55-1.78-6.91-3.82-10.29-5.9-5.59-3.37-11.39-6.39-17.16-9.44-11.23-5.94-11.23-5.94-16.51-9.18-3.52-2.16-7.1-4.05-10.81-5.87-5.53-2.71-10.78-5.73-16-9-.93-.57-.93-.57-1.88-1.16-2.8-1.78-4.24-3.03-6.12-5.84 4.6-3.2 9.23-6.19 14.19-8.81 4.43-2.36 8.62-4.95 12.81-7.69 4.94-3.23 9.94-6.14 15.16-8.91 3.38-1.89 6.6-3.97 9.84-6.09 4.94-3.23 9.94-6.14 15.16-8.91 3.38-1.89 6.6-3.97 9.84-6.09 4.94-3.23 9.94-6.14 15.16-8.91 3.38-1.89 6.6-3.97 9.84-6.09 4.93-3.22 9.91-6.16 15.11-8.91 3.43-1.89 6.75-3.92 10.08-5.97 7.1-4.32 14.43-8.07 21.91-11.69 2.03-.99 4.04-2.01 6.05-3.02 15.03-7.53 31.42-13.68 47.64-18.04 3.41-.92 6.78-1.95 10.15-3 1.07-.33 2.13-.66 3.23-1 .94-.28 1.87-.57 2.83-.87 8.97-2.74 18.05-4.21 27.31-5.54 2.65-.32 2.65-.32 4.69-1.46 3.63-.64 7.29-1.05 10.94-1.5 1.07-.14 2.15-.27 3.25-.41 7.61-.91 15.18-1.52 22.83-1.8 3.76-.14 7.32-.41 10.98-1.29-3.9-4.6-3.9-4.6-7.93-9.08-4.28-4.63-7.73-9.33-11.02-14.7-2.55-4.01-5.29-7.86-8.05-11.72-3.97-5.57-7.79-11.18-11.4-16.99-2.3-3.61-4.8-7.06-7.31-10.51-1.29-2-1.29-2-1.29-4-.66 0-1.32 0-2 0-1.51-2.09-1.51-2.09-3.25-4.94-2.78-4.51-5.66-8.92-8.68-13.28-1.07-1.78-1.07-1.78-1.07-3.78-.66 0-1.32 0-2 0 0-.99 0-1.98 0-3-.66 0-1.32 0-2 0-1.58-2.2-1.58-2.2-3.37-5.13-1.97-3.19-3.93-6.36-6.07-9.43-1.56-2.44-1.56-2.44-1.56-4.44-.66 0-1.32 0-2 0 0-.99 0-1.98 0-3-.66 0-1.32 0-2 0-1.69-2.27-1.69-2.27-3.56-5.25-.62-.98-1.24-1.95-1.88-2.95-1.32-2.37-2.1-4.16-2.56-6.8-.66 0-1.32 0-2 0-1.34-1.88-1.34-1.88-2.94-4.56-3.43-5.58-7.2-10.82-11.15-16.05-2.16-2.89-4.18-5.76-5.94-8.92-2.39-4.22-5.14-8.09-7.96-12.02-3.01-4.24-3.01-4.24-3.01-6.45-.66 0-1.32 0-2 0-1.51-2.09-1.51-2.09-3.25-4.94-2.78-4.51-5.66-8.92-8.68-13.28-1.07-1.78-1.07-1.78-1.07-3.78-.66 0-1.32 0-2 0 0-.99 0-1.98 0-3-.66 0-1.32 0-2 0-1.51-2.09-1.51-2.09-3.25-4.94-2.78-4.51-5.66-8.92-8.68-13.28-1.07-1.78-1.07-1.78-1.07-3.78-.66 0-1.32 0-2 0-1.51-1.97-1.51-1.97-3.12-4.5-.54-.84-1.08-1.67-1.64-2.53-.61-.98-.61-.98-1.24-1.97v2.97c-.04 23.83-.1 47.65-.18 71.48-.04 11.52-.07 23.05-.09 34.57-.01 10.04-.04 20.08-.08 30.12-.03 5.32-.04 10.64-.04 15.96 0 5-.02 10.01-.05 15.01-.01 1.84-.01 3.68 0 5.51 0 2.51-.01 5.02-.04 7.53.01.73.02 1.45.02 2.2-.08 4.82-1.14 7.25-4.54 10.65-2.04 1.37-2.04 1.37-4.19 2.44-3.2 1.67-6.2 3.44-9.18 5.5-4.17 2.83-8.5 5.19-12.94 7.56-2.5 1.39-4.83 2.88-7.19 4.5-4.09 2.8-8.34 5.15-12.72 7.48-3.61 1.97-7.1 4.13-10.59 6.32-2.09 1.14-3.86 1.75-6.19 2.2v2c-.68.36-1.35.73-2.05 1.1-5.7 3.08-11.28 6.26-16.76 9.7-2.09 1.14-3.86 1.75-6.19 2.2v2c-.68.36-1.35.73-2.05 1.1-5.7 3.08-11.28 6.26-16.76 9.7-2.09 1.14-3.86 1.75-6.19 2.2v2c-2.9 2.04-4.4 3-8 3v2c-1.26.61-1.26.61-2.55 1.24-1.1.54-2.19 1.08-3.32 1.63-1.64.8-1.64.8-3.31 1.62-2.86 1.35-2.86 1.35-4.82 3.51-.99 0-1.98 0-3 0v2c-.68.36-1.35.73-2.05 1.1-5.7 3.08-11.28 6.26-16.76 9.7-2.09 1.14-3.86 1.75-6.19 2.2v2c-.68.36-1.35.73-2.05 1.1-5.7 3.08-11.28 6.26-16.76 9.7-2.09 1.14-3.86 1.75-6.19 2.2v2c-.72.39-1.45.77-2.19 1.17-6.28 3.33-6.28 3.33-12.18 7.27-2.63 1.56-2.63 1.56-4.86 1.36-3.42-.99-6.49-2.48-9.64-4.11-.62-.32-1.25-.64-1.89-.96-4.15-2.13-8.21-4.38-12.24-6.73-1.99-1.02-3.99-2.02-6-3 0-.66 0-1.32 0-2-.7-.09-1.4-.18-2.13-.27-3.47-.88-5.81-2.4-8.81-4.36-5.74-3.67-11.61-6.71-17.75-9.7-3.9-1.97-7.61-4.18-11.32-6.51-2.08-1.31-2.08-1.31-4.99-2.16 0-.66 0-1.32 0-2-.73-.11-1.46-.22-2.21-.33-2.95-.71-4.81-1.72-7.35-3.36-3.63-2.26-7.27-4.26-11.13-6.12-4.76-2.34-9.29-4.92-13.81-7.69-4.42-2.71-8.83-5.24-13.5-7.5-5.35-2.59-10.37-5.58-15.43-8.68-3.78-2.3-7.58-4.39-11.57-6.32-5.35-2.59-10.37-5.58-15.43-8.68-3.78-2.3-7.58-4.39-11.57-6.32-4.67-2.26-9.08-4.79-13.5-7.5-4.38-2.68-8.74-5.2-13.37-7.44-5.26-2.54-10.29-5.41-15.32-8.37-.75-.45-1.51-.89-2.29-1.35-5.38-3.2-5.38-3.2-6.52-4.34-.11-2.5-.15-4.98-.16-7.49 0-1.19 0-1.19-.01-2.4-.02-2.68-.02-5.35-.03-8.03-.01-1.91-.02-3.83-.03-5.74-.03-5.2-.05-10.41-.07-15.62-.02-5.43-.05-10.87-.08-16.3-.05-10.3-.09-20.6-.14-30.9-.04-11.72-.1-23.44-.16-35.16-.11-24.12-.22-48.24-.32-72.36-1.11 1.58-2.22 3.16-3.33 4.74-.61.89-1.23 1.77-1.87 2.67-2.39 3.44-4.73 6.91-7.05 10.4-.63.94-.63.94-1.27 1.91-1.81 2.71-3.54 5.39-5.15 8.23-.44.68-.88 1.35-1.33 2.05-.66 0-1.32 0-2 0-.09.54-.19 1.08-.28 1.64-.93 3.06-2.44 5.42-4.16 8.11-.61.98-1.23 1.97-1.87 2.98-.83 1.13-.83 1.13-1.69 2.27-.66 0-1.32 0-2 0-.1.58-.2 1.15-.31 1.75-.8 2.62-1.98 4.18-3.69 6.31-1.94 2.44-3 3.94-4 6.94-.66 0-1.32 0-2 0-.22.68-.45 1.36-.69 2.06-1.39 3.13-3.12 5.58-5.19 8.29-1.31 1.77-1.31 1.77-2.12 4.65-.66 0-1.32 0-2 0-.35 1.02-.35 1.02-.72 2.07-1.55 3.55-3.6 6.62-5.78 9.8-.9 1.35-1.81 2.69-2.72 4.03-.46.68-.92 1.36-1.4 2.06-2.14 3.17-4.26 6.35-6.38 9.54-2.6 3.9-5.2 7.81-7.81 11.71-.46.68-.92 1.37-1.4 2.08-.88 1.32-1.77 2.64-2.65 3.96-2.21 3.29-2.21 3.29-4.14 6.75-.66 0-1.32 0-2 0-.22.68-.45 1.36-.69 2.06-1.39 3.13-3.12 5.58-5.19 8.29-1.31 1.77-1.31 1.77-2.12 4.65-.66 0-1.32 0-2 0-.24.68-.47 1.36-.72 2.07-1.55 3.56-3.6 6.67-5.78 9.87-.65.97-.65.97-1.32 1.97-3.49 5.16-7.09 10.24-10.78 15.26-2 2.75-3.84 5.52-5.5 8.49-1.51 2.65-3.01 4.96-4.9 7.34-2.19 2.86-4.02 5.74-5.76 8.91-2.73 4.61-5.92 8.94-9 13.32-2.07 2.96-4.12 5.93-6.18 8.89-.73 1.06-1.46 2.11-2.21 3.2-1.3 1.88-2.58 3.78-3.85 5.68-.66 0-1.32 0-2 0-.34.8-.34.8-.69 1.62-1.74 3.16-3.98 5.63-6.31 8.38.58-.01 1.15-.01 1.74-.02 2.63-.02 5.26-.03 7.89-.04.9-.01 1.8-.02 2.74-.03 4.69-.02 9.01.25 13.63 1.09 2.87.21 5.75.32 8.63.44 7.26.36 14.23 1.19 21.37 2.56 1.35.23 2.7.46 4.06.69 24.84 4.21 24.84 4.21 26.94 6.31 3.52.8 7.05 1.48 10.58 2.18 2.88.69 4.84 1.49 7.42 2.82 3.06.82 6.14 1.52 9.22 2.22 2.78.78 2.78.78 5.78 2.78 1.49.45 2.99.87 4.5 1.25 8.81 2.55 16.39 7.65 24.17 12.38 2.72 1.6 5.51 3 8.34 4.38 5.5 2.73 10.77 5.84 15.99 9.05 4.51 2.74 9.13 4.94 14 6.94v2c.54.11 1.08.21 1.63.32 7.36 2.1 14.07 6.48 20.37 10.68 2.97 1.53 5.96 3.01 8.95 4.48 3.5 1.74 6.91 3.61 10.31 5.54 1.23.69 2.48 1.35 3.74 1.98v2c.58.13 1.16.25 1.76.38 2.23.62 4.06 1.43 6.12 2.49.69.36 1.37.71 2.08 1.07.68.35 1.35.7 2.04 1.06 1.16.58 2.31 1.15 3.5 1.75.83.41 1.65.82 2.5 1.25v2c.52.1 1.04.19 1.58.29 3.27.96 6.21 2.48 9.23 4.02.63.32 1.25.63 1.89.96 4.18 2.12 8.27 4.35 12.3 6.73.66.33 1.32.66 2 1v2c1.08.17 1.08.17 2.19.34 3 .7 5.19 1.77 7.87 3.28 1.45.81 1.45.81 2.92 1.64 3 1.73 5.98 3.48 8.96 5.24 5.88 3.46 11.92 6.53 18.06 9.5v2c.72.1 1.44.21 2.18.31 3.13.76 5.24 1.97 7.95 3.69 2.68 1.7 4.85 2.99 7.87 4v2c1.1.16 1.1.16 2.22.33 2.95.71 4.81 1.72 7.34 3.36 3.64 2.26 7.28 4.26 11.13 6.12 4.77 2.33 9.29 4.92 13.81 7.69 4.42 2.71 8.83 5.24 13.5 7.5 5.36 2.59 10.37 5.58 15.44 8.68 3.78 2.3 7.58 4.39 11.56 6.32 5.36 2.59 10.37 5.58 15.44 8.68 3.78 2.3 7.58 4.39 11.56 6.32 5.36 2.59 10.37 5.58 15.44 8.68 3.78 2.3 7.58 4.39 11.56 6.32 5.35 2.59 10.36 5.58 15.42 8.68 4.82 2.92 9.75 5.47 14.82 7.92 3.54 1.79 6.89 3.83 10.27 5.9 4.41 2.65 8.96 5.06 13.49 7.5 1.79.98 3.59 1.96 5.38 2.94 2.94 1.61 5.89 3.2 8.85 4.78 5.02 2.68 9.99 5.37 14.83 8.34 3.57 2.18 7.19 4.1 10.94 5.94 4.62 2.26 9 4.74 13.37 7.43 4.07 2.43 8.26 4.61 12.44 6.83 3.74 2.04 7.37 4.22 10.97 6.48 2.34 1.33 4.7 2.31 7.22 3.26v2c.71.1 1.42.21 2.15.31 3.23.78 5.65 2.05 8.54 3.69.95.54 1.9 1.07 2.89 1.62.8.46 1.6.91 2.42 1.38.66.33 1.32.66 2 1v2h4v2c1.09.16 1.09.16 2.2.32 3.02.73 5 1.82 7.61 3.49 4.3 2.68 8.63 4.99 13.19 7.19v2c.66.06 1.32.12 2 .19 4.12 1.11 7.66 3.15 11 5.81v2c-66.23.02-132.46.03-198.69.04-.98 0-1.96 0-2.97 0-21.28.01-42.57.01-63.85.01-10.44 0-20.88 0-31.31 0-1.04 0-2.08 0-3.15 0-33.7.01-67.39.02-101.09.03-34.61.01-69.22.01-103.83.01-4.89 0-9.77 0-14.65 0-.96 0-1.92 0-2.91 0-15.51.01-31.01.01-46.51.02-15.57 0-31.13 0-46.7 0-9.26 0-18.52 0-27.78.01-6.17 0-12.35 0-18.52 0-3.53 0-7.05 0-10.58 0-3.79.01-7.57.01-11.36 0-1.11.01-2.22.01-3.36.01-1.5 0-1.5 0-3.03-.01-1.3 0-1.3 0-2.63 0-2.08-.12-2.08-.12-4.08-1.12-1.45-.15-2.91-.26-4.37-.36-6.15-.57-11.85-2.18-17.75-3.95-1.04-.3-2.07-.59-3.13-.9-5.28-1.56-10.17-3.3-15.04-5.89-2.33-1.23-4.75-2.19-7.21-3.15-.85-.34-1.71-.67-2.59-1.02-.63-.24-1.26-.48-1.91-.73 0-.66 0-1.32 0-2-.52-.08-1.05-.17-1.59-.25-3.31-1.03-6.06-2.84-8.97-4.69-.58-.36-1.15-.72-1.75-1.09-2.59-1.62-5.15-3.28-7.69-4.97 0-.66 0-1.32 0-2-.99 0-1.98 0-3 0 0-.66 0-1.32 0-2-1.32-.33-2.64-.66-4-1 0-.66 0-1.32 0-2-.58-.27-1.15-.54-1.75-.81-2.3-1.22-4.27-2.49-6.25-4.19 0-.66 0-1.32 0-2-.99-.33-1.98-.66-3-1 0-.66 0-1.32 0-2-.66 0-1.32 0-2 0-2.55-2.47-4.74-5.27-7-8-.62-.74-1.24-1.47-1.88-2.23-4.12-4.98-7.84-10.16-11.43-15.52-.42-.63-.84-1.25-1.28-1.9-6.41-9.71-6.41-9.71-6.41-14.35-.66 0-1.32 0-2 0-.95-2.38-1.9-4.76-2.85-7.13-.74-1.85-1.49-3.7-2.23-5.55-2.6-6.42-4.92-12.71-6.32-19.51-.42-1.96-.87-3.92-1.34-5.87-2.28-9.95-2.72-19.52-2.65-29.71.02-2.66 0-5.32-.02-7.98-.02-13.81 1.71-26.75 5.79-40 .21-.7.42-1.41.64-2.13 5.18-16.74 13.51-34.01 23.98-48.12h2c.25-.54.5-1.07.75-1.63 1.56-2.95 3.29-5.67 5.25-8.37h2c.23-.55.46-1.1.69-1.67 5.96-10.58 18.78-19.05 28.63-25.57 1.6-1.06 1.6-1.06 3.24-2.14.8-.54 1.61-1.07 2.44-1.62-.93-.01-1.86-.01-2.81-.02-8.83-.06-17.65-.13-26.48-.22-4.53-.04-9.07-.08-13.6-.11-4.39-.02-8.78-.06-13.17-.11-1.66-.02-3.32-.03-4.99-.04-21.67-.09-40.73-4.31-58.95-16.5-.99-.66-1.98-1.32-3-2 0-.66 0-1.32 0-2-.53-.21-1.07-.41-1.62-.63-3.3-1.9-5.97-4.42-8.38-7.37 0-.66 0-1.32 0-2-.66 0-1.32 0-2 0-1.73-2.24-3.32-4.46-4.87-6.81-.46-.69-.91-1.37-1.37-2.07-3.54-5.48-5.85-10.89-7.76-17.12-.5-1.2-1.01-2.4-1.52-3.64-1.63-4.33-1.92-8.15-1.88-12.74 0-.76 0-1.53-.01-2.33 0-1.61.01-3.22.02-4.84.02-2.44 0-4.89-.02-7.34 0-1.58.01-3.16.01-4.74 0-.72-.01-1.44-.01-2.18.07-5.32 1.35-9.29 3.41-14.19.63-1.81 1.25-3.63 1.88-5.44 1.86-5.18 4.28-9.85 7.12-14.56h2c.25-.54.5-1.07.75-1.63 1.56-2.95 3.29-5.67 5.25-8.37h2c.33-.99.66-1.98 1-3 1.82-1.68 3.61-3.19 5.56-4.69.86-.65.86-.65 1.73-1.32 21.25-15.76 43.8-17.41 69.33-17.5 3.04-.02 6.07-.05 9.1-.08h2.77c5.86-.06 10.12-1.1 15.51-3.41 1.66-.38 3.32-.74 5-1 0-.66 0-1.32 0-2 1.47-1.16 1.47-1.16 3.5-2.5 6.17-4.46 11.33-10.55 14.5-17.5h2c.22-.68.44-1.36.67-2.06 1.72-3.8 4.09-6.79 6.64-10.07 4.6-6 8.97-12.1 13.19-18.37 4.63-6.86 9.44-13.53 14.45-20.11 3.2-4.21 6.19-8.48 8.97-12.98.35-.47.71-.93 1.08-1.41h2c.24-.69.48-1.37.72-2.07 1.55-3.54 3.59-6.6 5.78-9.74.41-.6.81-1.2 1.22-1.81 1.04-1.5 2.16-2.95 3.28-4.38h2c.31-.78.62-1.57.94-2.38 1.06-2.62 1.06-2.62 2.06-4.62h2c.27-.72.54-1.44.81-2.19 1.19-2.81 2.47-5.29 4.19-7.81h2c.31-.78.62-1.57.94-2.38 1.06-2.62 1.06-2.62 2.06-4.62h2c.28-.58.55-1.16.84-1.75 2.01-3.88 4.57-7.4 7.04-11 .87-1.27.87-1.27 1.75-2.57 4.14-5.99 8.43-11.83 12.85-17.61 4.48-5.92 8.63-12.03 12.78-18.18 4.09-6.02 8.4-11.81 12.91-17.52 1.84-2.22 1.84-2.22 2.83-4.37h2c0-.99 0-1.98 0-3h2c.31-.78.62-1.57.94-2.38 1.06-2.62 1.06-2.62 2.06-4.62h2c.31-.78.62-1.57.94-2.38 1.06-2.62 1.06-2.62 2.06-4.62h2c.25-.71.49-1.42.75-2.15 1.41-3.22 3.2-5.73 5.31-8.54 2.7-3.51 2.7-3.51 4.94-7.31h2c.31-.78.62-1.57.94-2.38 1.06-2.62 1.06-2.62 2.06-4.62h2c.22-.68.44-1.36.67-2.06 1.72-3.8 4.09-6.79 6.64-10.07 4.66-6.08 9.09-12.27 13.38-18.62 4.31-6.37 8.72-12.61 13.41-18.71 2.01-2.62 2.01-2.62 4.02-5.86.62-.89 1.24-1.77 1.88-2.68h2c.18-.88.18-.88.36-1.78 1.06-3.66 3.37-6.42 5.58-9.47.46-.65.91-1.3 1.38-1.97 1.17-1.63 2.42-3.21 3.68-4.78h2c.13-.6.25-1.2.38-1.81.62-2.19.62-2.19 2.62-5.19h2c0-.99 0-1.98 0-3h2c.31-.78.62-1.57.94-2.38 1.06-2.62 1.06-2.62 2.06-4.62h2c.31-.78.62-1.57.94-2.38 1.06-2.62 1.06-2.62 2.06-4.62h2c.47-.93.47-.93.94-1.88.69-1.37 1.37-2.75 2.06-4.12h2c.31-.8.31-.8.63-1.63 1.9-3.29 4.42-5.96 7.37-8.37h2c0-.66 0-1.32 0-2 1.7-1.4 3.46-2.72 5.25-4 .98-.7 1.95-1.4 2.96-2.13 5.78-3.87 5.78-3.87 9.79-3.87 0-.66 0-1.32 0-2 17.33-8.23 33.81-11.76 52.95-11.67 1.84-.01 3.68-.03 5.51-.04 4.77-.03 9.55-.04 14.32-.04 6.75 0 13.5-.05 20.25-.08 3.59-.02 7.17-.03 10.75-.03 1.63-.01 3.27-.01 4.9-.01h2.21c4.78-.02 9.38-.46 14.11-1.13 0-.66 0-1.32 0-2 1.45-1.16 2.9-2.31 4.4-3.39 3.92-3.93 4.98-8.33 4.97-13.72.01-1.78.01-1.78.02-3.59-.01-1.27-.02-2.53-.02-3.84 0-1.96 0-1.96 0-3.97 0-2.77-.01-5.54-.03-8.3-.02-3.54-.03-7.08-.02-10.62.01-3.39-.01-6.78-.02-10.17 0-1.27 0-2.53.01-3.84-.01-1.18-.02-2.36-.03-3.58-.01-1.04-.01-2.07-.02-3.14-.27-2.97-1.1-5.11-2.26-7.84 0-.99 0-1.98 0-3-.66 0-1.32 0-2 0 0-.99 0-1.98 0-3-.66 0-1.32 0-2 0-1.62-1.38-1.62-1.38-3-3 0-.66 0-1.32 0-2-.66-.22-1.33-.43-2.01-.66-3.99-1.79-7.29-4.24-10.8-6.84-.69-.5-1.39-1-2.1-1.51-.65-.48-1.31-.96-1.98-1.46-.9-.66-.9-.66-1.81-1.33-.43-.39-.86-.79-1.3-1.2 0-.66 0-1.32 0-2-.8-.34-.8-.34-1.62-.69-5.64-3.12-9.65-7.58-13.76-12.44-1.58-1.88-1.58-1.88-3.32-3.49-1.3-1.38-1.3-1.38-1.3-3.38-.66 0-1.32 0-2 0-1.51-1.68-1.51-1.68-3.12-3.88-.54-.71-1.08-1.43-1.64-2.18-1.24-1.94-1.24-1.94-1.24-3.94-.66 0-1.32 0-2 0-1.29-1.43-1.29-1.43-2.62-3.31-.45-.62-.9-1.23-1.35-1.87-1.03-1.82-1.03-1.82-1.03-4.82-.66 0-1.32 0-2 0-7.04-9.47-12.28-21.28-16.1-32.4-1.2-3.46-2.58-6.83-3.97-10.21-1.93-4.96-3.34-9.88-4.43-15.08-.24-1.12-.47-2.23-.72-3.38-.26-1.31-.52-2.62-.78-3.93-.16-.8-.33-1.59-.5-2.41-1.29-6.52-1.81-12.74-1.8-19.38 0-.99-.01-1.98-.01-3-.01-2.08-.01-4.16 0-6.24 0-3.13-.02-6.26-.05-9.39-.04-11.59.67-22.29 3.36-33.58.18-.82.35-1.63.53-2.47 4.32-20.31 13.28-38.57 23.47-56.53.51-.92 1.02-1.85 1.54-2.8.49-.73.97-1.45 1.46-2.2h2c.27-.56.54-1.11.81-1.69 2.05-3.99 4.28-7.89 7.19-11.31h2c.27-.58.54-1.17.81-1.77 4.65-8.71 14.17-17.64 22.19-23.23h2c0-.66 0-1.32 0-2 1.58-1.37 1.58-1.37 3.76-2.93 1.19-.85 1.19-.85 2.4-1.72 1.25-.89 1.25-.89 2.53-1.79.82-.58 1.63-1.17 2.47-1.77 10.92-7.79 10.92-7.79 14.84-7.79 0-.66 0-1.32 0-2 6.54-3.4 13.13-6.35 20-9 1.77-.71 3.54-1.42 5.31-2.13 1.57-.62 3.13-1.25 4.69-1.87.85-.35 1.7-.7 2.57-1.06 2.65-1.02 5.31-1.72 8.07-2.37 1.74-.42 3.47-.87 5.19-1.33 5.76-1.52 11.27-2.63 17.21-3.03 3.03-.33 5.2-1.34 8.38-1.34z" transform="translate(621.417969 -.129395)"/></svg>